<svg id="visual" viewBox="0 0 1920 1080" width="1920" height="1080" xmlns="http://www.w3.org/2000/svg" xmlns:xlink="http://www.w3.org/1999/xlink" version="1.1"><rect x="0" y="0" width="1920" height="1080" fill="#001220"></rect><defs><linearGradient id="grad1_0" x1="43.8%" y1="0%" x2="100%" y2="100%"><stop offset="14.444444444444446%" stop-color="#04a7d3" stop-opacity="1"></stop><stop offset="85.55555555555554%" stop-color="#04a7d3" stop-opacity="1"></stop></linearGradient></defs><defs><linearGradient id="grad1_1" x1="43.8%" y1="0%" x2="100%" y2="100%"><stop offset="14.444444444444446%" stop-color="#04a7d3" stop-opacity="1"></stop><stop offset="85.55555555555554%" stop-color="#167094" stop-opacity="1"></stop></linearGradient></defs><defs><linearGradient id="grad1_2" x1="43.8%" y1="0%" x2="100%" y2="100%"><stop offset="14.444444444444446%" stop-color="#103e57" stop-opacity="1"></stop><stop offset="85.55555555555554%" stop-color="#167094" stop-opacity="1"></stop></linearGradient></defs><defs><linearGradient id="grad1_3" x1="43.8%" y1="0%" x2="100%" y2="100%"><stop offset="14.444444444444446%" stop-color="#103e57" stop-opacity="1"></stop><stop offset="85.55555555555554%" stop-color="#001220" stop-opacity="1"></stop></linearGradient></defs><defs><linearGradient id="grad2_0" x1="0%" y1="0%" x2="56.3%" y2="100%"><stop offset="14.444444444444446%" stop-color="#04a7d3" stop-opacity="1"></stop><stop offset="85.55555555555554%" stop-color="#04a7d3" stop-opacity="1"></stop></linearGradient></defs><defs><linearGradient id="grad2_1" x1="0%" y1="0%" x2="56.3%" y2="100%"><stop offset="14.444444444444446%" stop-color="#167094" stop-opacity="1"></stop><stop offset="85.55555555555554%" stop-color="#04a7d3" stop-opacity="1"></stop></linearGradient></defs><defs><linearGradient id="grad2_2" x1="0%" y1="0%" x2="56.3%" y2="100%"><stop offset="14.444444444444446%" stop-color="#167094" stop-opacity="1"></stop><stop offset="85.55555555555554%" stop-color="#103e57" stop-opacity="1"></stop></linearGradient></defs><defs><linearGradient id="grad2_3" x1="0%" y1="0%" x2="56.3%" y2="100%"><stop offset="14.444444444444446%" stop-color="#001220" stop-opacity="1"></stop><stop offset="85.55555555555554%" stop-color="#103e57" stop-opacity="1"></stop></linearGradient></defs><g transform="translate(1920, 0)"><path d="M0 918C-52.7 913.2 -105.3 908.3 -158.2 897.2C-211.1 886 -264.2 868.4 -301 826.9C-337.8 785.4 -358.2 720 -400 692.8C-441.8 665.6 -504.8 676.6 -552.8 658.8C-600.8 641 -633.8 594.2 -641.9 538.7C-650.1 483.1 -633.2 418.6 -652.1 376.5C-671 334.4 -725.5 314.7 -778.1 283.2C-830.6 251.7 -881.1 208.6 -904.1 159.4C-927 110.3 -922.5 55.1 -918 0L0 0Z" fill="#09273b"></path><path d="M0 688.5C-39.5 684.9 -79 681.3 -118.6 672.9C-158.3 664.5 -198.1 651.3 -225.7 620.2C-253.3 589.1 -268.7 540 -300 519.6C-331.3 499.2 -378.6 507.5 -414.6 494.1C-450.6 480.7 -475.4 445.7 -481.5 404C-487.5 362.3 -474.9 314 -489.1 282.4C-503.2 250.8 -544.2 236 -583.5 212.4C-622.9 188.8 -660.8 156.4 -678 119.6C-695.3 82.7 -691.9 41.3 -688.5 0L0 0Z" fill="#155675"></path><path d="M0 459C-26.3 456.6 -52.7 454.2 -79.1 448.6C-105.5 443 -132.1 434.2 -150.5 413.5C-168.9 392.7 -179.1 360 -200 346.4C-220.9 332.8 -252.4 338.3 -276.4 329.4C-300.4 320.5 -316.9 297.1 -321 269.3C-325 241.5 -316.6 209.3 -326.1 188.3C-335.5 167.2 -362.8 157.3 -389 141.6C-415.3 125.9 -440.5 104.3 -452 79.7C-463.5 55.1 -461.3 27.6 -459 0L0 0Z" fill="#128bb3"></path><path d="M0 229.5C-13.2 228.3 -26.3 227.1 -39.5 224.3C-52.8 221.5 -66 217.1 -75.2 206.7C-84.4 196.4 -89.6 180 -100 173.2C-110.4 166.4 -126.2 169.2 -138.2 164.7C-150.2 160.2 -158.5 148.6 -160.5 134.7C-162.5 120.8 -158.3 104.7 -163 94.1C-167.7 83.6 -181.4 78.7 -194.5 70.8C-207.6 62.9 -220.3 52.1 -226 39.9C-231.8 27.6 -230.6 13.8 -229.5 0L0 0Z" fill="#04a7d3"></path></g><g transform="translate(0, 1080)"><path d="M0 -918C54.8 -899.3 109.6 -880.7 146.7 -832.2C183.8 -783.7 203.2 -705.3 255.8 -702.9C308.5 -700.5 394.5 -774 446 -772.5C497.5 -771 514.6 -694.6 542.5 -646.5C570.4 -598.5 609.1 -578.8 664.2 -557.3C719.2 -535.8 790.7 -512.4 795 -459C799.4 -405.6 736.6 -322 733.9 -267.1C731.2 -212.2 788.5 -186 829.2 -146.2C869.9 -106.5 893.9 -53.2 918 0L0 0Z" fill="#09273b"></path><path d="M0 -688.5C41.1 -674.5 82.2 -660.5 110 -624.1C137.9 -587.7 152.4 -529 191.9 -527.2C231.4 -525.3 295.9 -580.5 334.5 -579.4C373.1 -578.3 386 -520.9 406.9 -484.9C427.8 -448.9 456.8 -434.1 498.1 -418C539.4 -401.8 593 -384.3 596.3 -344.3C599.5 -304.2 552.5 -241.5 550.4 -200.3C548.4 -159.2 591.4 -139.5 621.9 -109.7C652.4 -79.8 670.5 -39.9 688.5 0L0 0Z" fill="#155675"></path><path d="M0 -459C27.4 -449.7 54.8 -440.3 73.4 -416.1C91.9 -391.8 101.6 -352.7 127.9 -351.4C154.2 -350.2 197.2 -387 223 -386.2C248.8 -385.5 257.3 -347.3 271.3 -323.3C285.2 -299.2 304.5 -289.4 332.1 -278.6C359.6 -267.9 395.3 -256.2 397.5 -229.5C399.7 -202.8 368.3 -161 366.9 -133.6C365.6 -106.1 394.3 -93 414.6 -73.1C434.9 -53.2 447 -26.6 459 0L0 0Z" fill="#128bb3"></path><path d="M0 -229.5C13.7 -224.8 27.4 -220.2 36.7 -208C46 -195.9 50.8 -176.3 64 -175.7C77.1 -175.1 98.6 -193.5 111.5 -193.1C124.4 -192.8 128.7 -173.6 135.6 -161.6C142.6 -149.6 152.3 -144.7 166 -139.3C179.8 -133.9 197.7 -128.1 198.8 -114.8C199.8 -101.4 184.2 -80.5 183.5 -66.8C182.8 -53.1 197.1 -46.5 207.3 -36.6C217.5 -26.6 223.5 -13.3 229.5 0L0 0Z" fill="#04a7d3"></path></g></svg>